<svg xmlns="http://www.w3.org/2000/svg" viewBox="0 0 64 64" width="64" height="64">
  <path d="M 8 8 L 32 32" fill="none" stroke="#16110c" stroke-width="16.5" stroke-linejoin="round" stroke-linecap="round"/>
  <path d="M 27 36 C 30 45 32 52 34 60 C 43 62 54 58 58 51 C 61 46 61 40 60 34 C 52 32 44 30 36 27 Z" fill="#16110c" stroke="#16110c" stroke-width="10.0" stroke-linejoin="round" stroke-linecap="round"/>
  <path d="M 8 8 L 32 32" fill="none" stroke="#a0703f" stroke-width="6.5" stroke-linejoin="round" stroke-linecap="round"/>
  <path d="M 27 36 C 30 45 32 52 34 60 C 43 62 54 58 58 51 C 61 46 61 40 60 34 C 52 32 44 30 36 27 Z" fill="#efe6cf"/>
  <path d="M 10 13 L 30 33" fill="none" stroke="#6f4523" stroke-width="2.0" stroke-linejoin="round" stroke-linecap="round"/>
  <path d="M 27 36 C 30 45 32 52 34 60 C 36 60.5 38 60.8 40 60.8 C 37 52 34 44 31 34 Z" fill="#cdbf9b"/>
  <path d="M 33 33 C 41 39 49 43 59 45" fill="none" stroke="#cdbf9b" stroke-width="3.0" stroke-linejoin="round" stroke-linecap="round"/>
  <path d="M 34 31 C 42 36 50 40 59 42" fill="none" stroke="#fbf5e6" stroke-width="1.4" stroke-linejoin="round" stroke-linecap="round"/>
  <rect x="25.5" y="27.5" width="11" height="7" rx="2" fill="#dcbb7c" transform="rotate(45 31 31)"/>
</svg>
