<svg xmlns="http://www.w3.org/2000/svg" viewBox="0 0 64 64" width="64" height="64">
  <path d="M 4 52 L 4 26 C 4 17 9 13 18 13 L 46 13 C 55 13 60 17 60 26 L 60 52 Z" fill="#16110c" stroke="#16110c" stroke-width="10.0" stroke-linejoin="round" stroke-linecap="round"/>
  <path d="M 4 52 L 4 26 C 4 17 9 13 18 13 L 46 13 C 55 13 60 17 60 26 L 60 52 Z" fill="#ebe8e1"/>
  <rect x="4" y="44" width="56" height="8" fill="#c4c0b6"/>
  <rect x="47" y="13.6" width="5" height="38.4" fill="#f28c28"/>
  <rect x="27" y="26" width="10" height="26" fill="#3b4145"/>
  <rect x="27" y="26" width="10" height="3" fill="#f28c28"/>
  <rect x="10" y="25" width="11" height="8" rx="1.5" fill="#3b4145"/>
  <rect x="11.5" y="26.5" width="8" height="5" rx="1" fill="#58c7e8"/>
  <rect x="40" y="25" width="5" height="8" rx="1.5" fill="#3b4145"/>
  <rect x="41" y="26.5" width="3" height="5" rx="0.8" fill="#58c7e8"/>
</svg>
