<svg xmlns="http://www.w3.org/2000/svg" viewBox="0 0 64 64" width="64" height="64">
  <path d="M 25 22 C 23.6 13.9 30.6 11.2 32 4 C 34.1 12.1 40.75 13.9 39 22 Z" fill="#16110c" stroke="#16110c" stroke-width="10.0" stroke-linejoin="round" stroke-linecap="round"/>
  <circle cx="32" cy="41" r="17" fill="#16110c" stroke="#16110c" stroke-width="10.0" stroke-linejoin="round" stroke-linecap="round"/>
  <rect x="24.5" y="18" width="15" height="8" rx="3.5" fill="#16110c" stroke="#16110c" stroke-width="10.0" stroke-linejoin="round" stroke-linecap="round"/>
  <path d="M 25 22 C 23.6 13.9 30.6 11.2 32 4 C 34.1 12.1 40.75 13.9 39 22 Z" fill="#f28c28"/>
  <circle cx="32" cy="41" r="17" fill="#b8693b"/>
  <rect x="24.5" y="18" width="15" height="8" rx="3.5" fill="#3a2616"/>
  <path d="M 15.5 44 C 17 52 24 58 32 58 C 40 58 47 52 48.5 44 C 44 50 38 53 32 53 C 26 53 20 50 15.5 44 Z" fill="#7c3f20"/>
  <ellipse cx="25" cy="35" rx="6" ry="4" fill="#d9915f" transform="rotate(-30 25 35)"/>
  <path d="M 18 33 C 26 30 38 30 46 33" fill="none" stroke="#7c3f20" stroke-width="1.6" stroke-linejoin="round" stroke-linecap="round"/>
  <rect x="24.5" y="18" width="15" height="8" rx="3.5" fill="#3a2616"/>
  <path d="M 25 23.5 L 39 23.5" fill="none" stroke="#dcbb7c" stroke-width="2.0" stroke-linejoin="round" stroke-linecap="round"/>
  <path d="M 28.5 22 C 27.45 16.6 31.3 14.8 32.35 10.84 C 33.4 15.7 36.9 16.6 35.5 22 Z" fill="#f7cb4c"/>
</svg>
