<svg xmlns="http://www.w3.org/2000/svg" viewBox="0 0 64 64" width="64" height="64">
  <path d="M 8 46 C 6 38 12 30 21 30 C 28 29 33 34 33 41 C 34 50 26 55 18 54 C 12 53 9 50 8 46 Z" fill="#16110c" stroke="#16110c" stroke-width="10.0" stroke-linejoin="round" stroke-linecap="round"/>
  <path d="M 28 30 C 28 21 35 14 44 15 C 53 16 58 24 56 33 C 54 41 46 44 38 42 C 31 40 28 36 28 30 Z" fill="#16110c" stroke="#16110c" stroke-width="10.0" stroke-linejoin="round" stroke-linecap="round"/>
  <path d="M 33 50 C 34 45 40 42 46 44 C 53 46 56 51 53 56 C 49 60 38 60 34 56 Z" fill="#16110c" stroke="#16110c" stroke-width="10.0" stroke-linejoin="round" stroke-linecap="round"/>
  <path d="M 8 46 C 6 38 12 30 21 30 C 28 29 33 34 33 41 C 34 50 26 55 18 54 C 12 53 9 50 8 46 Z" fill="#9c4f22"/>
  <path d="M 28 30 C 28 21 35 14 44 15 C 53 16 58 24 56 33 C 54 41 46 44 38 42 C 31 40 28 36 28 30 Z" fill="#9c4f22"/>
  <path d="M 33 50 C 34 45 40 42 46 44 C 53 46 56 51 53 56 C 49 60 38 60 34 56 Z" fill="#5e2f17"/>
  <path d="M 12 41 C 13 36 17 33 22 33 C 20 37 18 41 17 46 Z" fill="#c8743a"/>
  <path d="M 33 27 C 34 21 39 18 45 18 C 41 22 38 26 37 31 Z" fill="#c8743a"/>
  <path d="M 56 33 C 54 41 46 44 38 42 C 45 39 51 35 54 28 Z" fill="#5e2f17"/>
  <circle cx="19" cy="44" r="1.6" fill="#3b2a1c"/>
  <circle cx="25" cy="39" r="1.2" fill="#3b2a1c"/>
  <circle cx="14" cy="47" r="1.0" fill="#3b2a1c"/>
  <circle cx="42" cy="26" r="1.5" fill="#3b2a1c"/>
  <circle cx="49" cy="30" r="1.2" fill="#3b2a1c"/>
  <circle cx="46" cy="22" r="1.0" fill="#3b2a1c"/>
  <circle cx="40" cy="51" r="1.3" fill="#3b2a1c"/>
  <circle cx="47" cy="53" r="1.0" fill="#3b2a1c"/>
</svg>
