<svg xmlns="http://www.w3.org/2000/svg" viewBox="0 0 64 64" width="64" height="64">
  <rect x="13" y="47" width="38" height="11" rx="3" fill="#16110c" stroke="#16110c" stroke-width="10.0" stroke-linejoin="round" stroke-linecap="round"/>
  <rect x="17" y="15" width="30" height="33" rx="4" fill="#16110c" stroke="#16110c" stroke-width="10.0" stroke-linejoin="round" stroke-linecap="round"/>
  <rect x="12" y="7" width="40" height="9" rx="3" fill="#16110c" stroke="#16110c" stroke-width="10.0" stroke-linejoin="round" stroke-linecap="round"/>
  <rect x="13" y="47" width="38" height="11" rx="3" fill="#ebe8e1"/>
  <rect x="17" y="15" width="30" height="33" rx="4" fill="#2fd6b4"/>
  <rect x="12" y="7" width="40" height="9" rx="3" fill="#ebe8e1"/>
  <rect x="13" y="50" width="38" height="3" fill="#f28c28"/>
  <rect x="38" y="15" width="9" height="33" fill="#14907f"/>
  <rect x="22" y="19" width="4" height="24" rx="2" fill="#9ff3e0"/>
  <rect x="17" y="15" width="3.5" height="33" fill="#f28c28"/>
  <rect x="43.5" y="15" width="3.5" height="33" fill="#f28c28"/>
  <circle cx="33" cy="26" r="2.2" fill="#9ff3e0"/>
  <circle cx="30" cy="35" r="1.6" fill="#9ff3e0"/>
  <rect x="12" y="13" width="40" height="3" fill="#c4c0b6"/>
</svg>
