<svg xmlns="http://www.w3.org/2000/svg" viewBox="0 0 64 64" width="64" height="64">
  <polygon points="10,58 10,30 16,20 22,30 22,58" fill="#16110c" stroke="#16110c" stroke-width="10.0" stroke-linejoin="round" stroke-linecap="round"/>
  <polygon points="26,58 26,30 32,20 38,30 38,58" fill="#16110c" stroke="#16110c" stroke-width="10.0" stroke-linejoin="round" stroke-linecap="round"/>
  <polygon points="42,58 42,30 48,20 54,30 54,58" fill="#16110c" stroke="#16110c" stroke-width="10.0" stroke-linejoin="round" stroke-linecap="round"/>
  <rect x="7" y="44" width="50" height="5.5" rx="2" fill="#16110c" stroke="#16110c" stroke-width="10.0" stroke-linejoin="round" stroke-linecap="round"/>
  <rect x="16" y="6" width="32" height="17" rx="4" fill="#16110c" stroke="#16110c" stroke-width="10.0" stroke-linejoin="round" stroke-linecap="round"/>
  <polygon points="10,58 10,30 16,20 22,30 22,58" fill="#a0703f"/>
  <polygon points="26,58 26,30 32,20 38,30 38,58" fill="#a0703f"/>
  <polygon points="42,58 42,30 48,20 54,30 54,58" fill="#a0703f"/>
  <rect x="7" y="44" width="50" height="5.5" rx="2" fill="#dcbb7c"/>
  <rect x="16" y="6" width="32" height="17" rx="4" fill="#b0603c"/>
  <polygon points="10,58 10,30 14,22 14,58" fill="#6f4523"/>
  <polygon points="26,58 26,30 30,22 30,58" fill="#6f4523"/>
  <polygon points="42,58 42,30 46,22 46,58" fill="#6f4523"/>
  <rect x="7" y="44" width="50" height="5.5" rx="2" fill="#dcbb7c"/>
  <rect x="16" y="6" width="32" height="6" rx="3" fill="#c97a50"/>
  <rect x="16" y="17" width="32" height="6" rx="3" fill="#8a4a2e"/>
  <path d="M 22 5 L 22 25 M 42 5 L 42 25" fill="none" stroke="#dcbb7c" stroke-width="2.0" stroke-linejoin="round" stroke-linecap="round"/>
</svg>
