<svg xmlns="http://www.w3.org/2000/svg" viewBox="0 0 64 64" width="64" height="64">
  <path d="M 42 58 L 42 34" fill="none" stroke="#16110c" stroke-width="13.2" stroke-linejoin="round" stroke-linecap="round"/>
  <path d="M 30 50 L 50 32" fill="none" stroke="#16110c" stroke-width="13.0" stroke-linejoin="round" stroke-linecap="round"/>
  <path d="M 28 57 L 56 51" fill="none" stroke="#16110c" stroke-width="13.0" stroke-linejoin="round" stroke-linecap="round"/>
  <polygon points="4,52 50,22 58,30 12,58" fill="#16110c" stroke="#16110c" stroke-width="10.0" stroke-linejoin="round" stroke-linecap="round"/>
  <path d="M 42 58 L 42 34" fill="none" stroke="#dca466" stroke-width="3.2" stroke-linejoin="round" stroke-linecap="round"/>
  <path d="M 30 50 L 50 32" fill="none" stroke="#dca466" stroke-width="3.0" stroke-linejoin="round" stroke-linecap="round"/>
  <path d="M 28 57 L 56 51" fill="none" stroke="#dca466" stroke-width="3.0" stroke-linejoin="round" stroke-linecap="round"/>
  <polygon points="4,52 50,22 58,30 12,58" fill="#adb4b8"/>
  <polygon points="4,52 50,22 54,26 8,55" fill="#d3d8da"/>
  <polygon points="12,58 58,30 58,33 13,60" fill="#8b9397"/>
  <path d="M 4 59 L 60 59" fill="none" stroke="#6f4523" stroke-width="2.2" stroke-linejoin="round" stroke-linecap="round"/>
</svg>
