<svg xmlns="http://www.w3.org/2000/svg" viewBox="0 0 64 64" width="64" height="64">
  <path d="M 20 60 L 38 24" fill="none" stroke="#16110c" stroke-width="16.0" stroke-linejoin="round" stroke-linecap="round"/>
  <rect x="34" y="16" width="10" height="13" rx="3" fill="#16110c" stroke="#16110c" stroke-width="10.0" stroke-linejoin="round" stroke-linecap="round" transform="rotate(27 39 23)"/>
  <path d="M 32 22 C 30.4 13 38.4 10 40 2 C 42.4 11 50 13 48 22 Z" fill="#16110c" stroke="#16110c" stroke-width="10.0" stroke-linejoin="round" stroke-linecap="round"/>
  <path d="M 20 60 L 38 24" fill="none" stroke="#a0703f" stroke-width="6.0" stroke-linejoin="round" stroke-linecap="round"/>
  <rect x="34" y="16" width="10" height="13" rx="3" fill="#3a2616" transform="rotate(27 39 23)"/>
  <path d="M 32 22 C 30.4 13 38.4 10 40 2 C 42.4 11 50 13 48 22 Z" fill="#f28c28"/>
  <path d="M 34.5 21 L 43.5 25.5 M 33.5 25.5 L 41.5 29.5" fill="none" stroke="#dcbb7c" stroke-width="2.2" stroke-linejoin="round" stroke-linecap="round"/>
  <path d="M 36 22 C 34.8 16 39.2 14 40.4 9.6 C 41.6 15 45.6 16 44 22 Z" fill="#f7cb4c"/>
</svg>
